<?xml version="1.0" standalone="no"?>
<!DOCTYPE svg PUBLIC "-//W3C//DTD SVG 20010904//EN"
 "http://www.w3.org/TR/2001/REC-SVG-20010904/DTD/svg10.dtd">
<svg version="1.0" xmlns="http://www.w3.org/2000/svg"
 width="256.000000pt" height="256.000000pt" viewBox="0 0 256.000000 256.000000"
 preserveAspectRatio="xMidYMid meet">

<g transform="translate(0.000000,256.000000) scale(0.100000,-0.100000)"
fill="#000000" stroke="none">
<path d="M605 2431 c-54 -14 -135 -61 -175 -102 -50 -51 -91 -135 -97 -197
l-5 -47 30 60 c32 66 106 148 167 187 64 40 83 41 38 3 -59 -50 -111 -133
-144 -232 l-29 -85 0 -678 c0 -662 1 -681 21 -735 26 -69 105 -157 173 -193
l51 -27 700 0 700 0 55 26 c73 35 136 100 174 179 l31 65 0 695 0 695 -30 59
c-41 81 -108 149 -180 183 l-60 28 -400 5 -400 5 -54 35 -54 35 424 3 c264 1
443 -2 474 -8 146 -30 278 -145 332 -288 l14 -37 -4 56 c-7 113 -84 221 -199
281 l-63 33 -730 2 c-401 1 -743 -2 -760 -6z m434 -43 c80 -27 130 -59 189
-122 75 -79 122 -194 122 -299 0 -74 -23 -55 -32 26 -40 356 -477 514 -730
264 -35 -35 -69 -81 -89 -124 -30 -63 -33 -76 -34 -168 0 -89 3 -106 28 -160
33 -71 95 -153 136 -180 16 -10 27 -23 25 -27 -5 -8 -111 76 -142 112 -7 8
-27 44 -45 80 -62 129 -45 307 42 432 115 165 334 233 530 166z m-54 -54 c115
-29 202 -100 258 -209 25 -50 31 -75 35 -146 l4 -87 -28 -14 c-29 -14 -30 -19
-19 -68 10 -39 -95 -149 -183 -192 -62 -31 -74 -33 -167 -33 -90 0 -106 3
-158 29 -82 40 -160 120 -199 202 -27 57 -31 78 -31 148 0 69 4 90 30 148 84
181 270 272 458 222z m755 -94 c0 -11 10 -20 25 -24 14 -4 25 -11 25 -16 0 -5
-11 -12 -25 -16 -16 -4 -25 -13 -25 -25 0 -10 -7 -19 -15 -19 -8 0 -15 9 -15
20 0 13 -10 25 -27 32 l-28 11 28 10 c15 6 27 18 27 27 0 9 3 20 6 23 11 10
24 -3 24 -23z m-210 -11 c4 -15 14 -25 28 -27 12 -2 22 -10 22 -17 0 -7 -10
-15 -22 -17 -14 -2 -24 -12 -28 -27 -8 -35 -26 -37 -33 -2 -4 20 -13 30 -28
33 -30 4 -37 28 -9 28 15 0 25 9 33 30 13 35 29 34 37 -1z m627 -41 c14 -18
47 -107 42 -113 -3 -2 -18 25 -35 60 -28 60 -31 83 -7 53z m-157 -28 c-8 -5
-19 -10 -25 -10 -5 0 -3 5 5 10 8 5 20 10 25 10 6 0 3 -5 -5 -10z m135 -50 c9
-27 15 -57 13 -65 -2 -9 -27 -26 -55 -40 l-53 -24 0 27 c0 78 13 130 34 140
36 18 44 13 61 -38z m-305 -20 c-8 -5 -19 -10 -25 -10 -5 0 -3 5 5 10 8 5 20
10 25 10 6 0 3 -5 -5 -10z m126 -42 c-3 -29 -6 -63 -6 -75 0 -16 -11 -28 -40
-43 -21 -11 -42 -20 -45 -20 -7 0 -5 66 3 115 6 33 14 43 42 57 19 9 39 17 44
18 5 0 6 -24 2 -52z m-267 -12 c-2 -2 -29 -14 -59 -26 -30 -12 -51 -18 -47
-13 5 4 27 16 50 25 41 16 65 22 56 14z m84 -100 c-8 -57 -10 -60 -52 -83 -24
-13 -46 -21 -48 -20 -2 2 2 39 8 82 l12 77 41 19 c49 22 51 18 39 -75z m-293
14 c-8 -5 -19 -10 -25 -10 -5 0 -3 5 5 10 8 5 20 10 25 10 6 0 3 -5 -5 -10z
m113 -94 c-8 -56 -10 -59 -47 -74 -29 -11 -40 -12 -45 -3 -7 11 11 139 20 144
2 2 20 10 39 19 34 15 35 15 38 -6 1 -11 -1 -47 -5 -80z m617 64 c22 -12 37
-67 21 -83 -8 -8 -11 -1 -11 25 0 27 -6 41 -22 52 -25 18 -17 21 12 6z m-790
-50 c0 -5 -7 -10 -15 -10 -8 0 -15 5 -15 10 0 6 7 10 15 10 8 0 15 -4 15 -10z
m756 -7 c-3 -10 -11 -40 -17 -68 -7 -27 -19 -65 -26 -83 -13 -31 -16 -32 -51
-26 -20 4 -38 8 -40 9 -4 4 36 147 44 154 5 6 70 28 87 30 5 1 6 -7 3 -16z
m-769 -38 c24 -16 103 -118 103 -133 0 -11 -34 -22 -69 -22 -14 0 -40 -5 -58
-12 -23 -8 -36 -9 -43 -2 -11 11 -70 150 -70 164 0 14 53 29 84 24 17 -2 40
-11 53 -19z m556 -100 l-19 -60 -42 -3 c-48 -4 -48 -2 -26 73 14 49 18 55 57
68 52 17 56 8 30 -78z m274 13 c-2 -13 -4 -5 -4 17 -1 22 1 32 4 23 2 -10 2
-28 0 -40z m-449 -15 c-18 -65 -25 -73 -68 -73 -44 0 -44 0 -30 52 9 30 16 38
48 46 61 16 62 16 50 -25z m-528 2 c0 -34 -141 -158 -158 -139 -4 4 0 9 8 12
8 2 44 36 79 73 35 38 66 69 68 69 1 0 3 -7 3 -15z m340 -34 c0 -31 -14 -41
-58 -41 l-45 0 44 24 c49 27 59 30 59 17z m586 -52 c9 -15 9 -713 0 -728 -5
-8 -126 -11 -435 -11 l-428 0 -7 38 c-7 47 -8 630 0 659 6 22 8 22 317 27 172
2 337 9 367 14 79 13 178 14 186 1z m-1656 -39 c0 -10 9 -22 20 -25 23 -7 27
-25 5 -25 -9 0 -21 -12 -27 -27 l-11 -28 -10 28 c-6 16 -18 27 -29 27 -24 0
-23 17 1 25 10 3 22 17 25 31 7 28 26 23 26 -6z m367 -70 c-16 -5 -38 -5 -50
0 -17 7 -10 9 28 9 43 -1 46 -2 22 -9z m383 -50 c0 -6 -140 -10 -384 -10 -211
0 -390 -2 -398 -5 -10 -4 -12 -24 -10 -78 2 -39 0 -101 -4 -137 -7 -65 -7 -65
-15 -25 -4 22 -8 88 -8 147 l-1 107 38 3 c94 9 782 7 782 -2z m-702 -53 c2
-10 -3 -17 -12 -17 -10 0 -16 9 -16 21 0 24 23 21 28 -4z m72 3 c0 -11 -7 -20
-15 -20 -15 0 -21 21 -8 33 12 13 23 7 23 -13z m75 0 c0 -7 -6 -15 -12 -17 -8
-3 -13 4 -13 17 0 13 5 20 13 18 6 -3 12 -11 12 -18z m83 -3 c2 -10 -3 -17
-12 -17 -10 0 -16 9 -16 21 0 24 23 21 28 -4z m72 3 c0 -11 -4 -20 -10 -20 -5
0 -10 9 -10 20 0 11 5 20 10 20 6 0 10 -9 10 -20z m90 0 c0 -21 -15 -27 -25
-10 -7 12 2 30 16 30 5 0 9 -9 9 -20z m66 -17 c-11 -11 -19 6 -11 24 8 17 8
17 12 0 3 -10 2 -21 -1 -24z m244 11 c0 -8 -7 -14 -15 -14 -15 0 -21 21 -9 33
10 9 24 -2 24 -19z m-170 1 c0 -8 -4 -15 -10 -15 -5 0 -10 7 -10 15 0 8 5 15
10 15 6 0 10 -7 10 -15z m77 -7 c-3 -8 -6 -5 -6 6 -1 11 2 17 5 13 3 -3 4 -12
1 -19z m-303 -197 c-1 -119 -4 -155 -15 -162 -8 -5 -59 -8 -114 -8 -55 1 -126
-1 -157 -6 l-58 -7 0 171 0 171 173 -2 172 -3 -1 -154z m391 2 c-5 -98 -12
-161 -19 -166 -6 -4 -51 -6 -101 -5 -49 1 -118 -1 -152 -6 l-63 -9 0 172 0
171 171 0 171 0 -7 -157z m-695 -263 c0 -11 -7 -20 -15 -20 -8 0 -15 9 -15 20
0 11 7 20 15 20 8 0 15 -9 15 -20z m70 0 c0 -11 -7 -20 -15 -20 -15 0 -21 21
-8 33 12 13 23 7 23 -13z m76 -15 c-8 -23 -25 -9 -19 16 4 13 9 17 16 10 5 -5
7 -17 3 -26z m70 -2 c-11 -11 -19 6 -11 24 8 17 8 17 12 0 3 -10 2 -21 -1 -24z
m84 17 c0 -11 -7 -20 -15 -20 -8 0 -15 9 -15 20 0 11 7 20 15 20 8 0 15 -9 15
-20z m90 0 c0 -11 -7 -20 -15 -20 -8 0 -15 9 -15 20 0 11 7 20 15 20 8 0 15
-9 15 -20z m70 0 c0 -11 -4 -20 -10 -20 -5 0 -10 9 -10 20 0 11 5 20 10 20 6
0 10 -9 10 -20z m70 -5 c0 -14 -4 -25 -10 -25 -5 0 -10 11 -10 25 0 14 5 25
10 25 6 0 10 -11 10 -25z m-633 -17 c-3 -7 -5 -2 -5 12 0 14 2 19 5 13 2 -7 2
-19 0 -25z m693 17 c0 -8 -4 -15 -10 -15 -5 0 -10 7 -10 15 0 8 5 15 10 15 6
0 10 -7 10 -15z m27 -7 c-3 -8 -6 -5 -6 6 -1 11 2 17 5 13 3 -3 4 -12 1 -19z
m73 7 c0 -8 -4 -15 -10 -15 -5 0 -10 7 -10 15 0 8 5 15 10 15 6 0 10 -7 10
-15z m-567 -52 c-7 -2 -21 -2 -30 0 -10 3 -4 5 12 5 17 0 24 -2 18 -5z m245 0
c-10 -2 -28 -2 -40 0 -13 2 -5 4 17 4 22 1 32 -1 23 -4z m-100 -115 c31 -29
30 -81 -3 -113 -33 -34 -78 -33 -110 1 -35 37 -33 78 5 116 35 34 68 33 108
-4z m558 18 c25 -19 11 -31 -33 -27 -45 4 -41 -17 6 -33 63 -21 67 -69 8 -90
-34 -13 -92 10 -76 30 8 10 16 11 31 3 21 -11 48 -6 48 9 0 5 -18 16 -40 25
-32 12 -40 20 -40 41 0 26 32 56 60 56 9 0 25 -6 36 -14z m162 -9 c18 -14 6
-22 -35 -22 -41 0 -59 -20 -50 -57 8 -29 35 -40 62 -26 23 13 47 -8 25 -23
-49 -31 -104 -12 -123 44 -23 70 63 130 121 84z m160 -13 c30 -33 29 -78 -3
-109 -33 -33 -70 -32 -106 4 -33 33 -37 65 -13 99 33 47 82 49 122 6z m-1153
-14 c10 -22 22 -40 27 -40 4 0 16 18 26 40 13 31 22 40 37 38 18 -3 20 -11 20
-77 0 -49 -4 -76 -12 -78 -8 -3 -13 13 -15 49 l-3 53 -22 -37 c-12 -21 -27
-38 -33 -38 -6 0 -19 15 -30 33 l-20 32 0 -47 c0 -36 -4 -48 -15 -48 -12 0
-15 16 -15 80 0 71 2 80 18 80 12 0 25 -14 37 -40z m356 -16 l23 -57 20 57
c15 41 25 56 39 56 11 0 17 -5 14 -12 -51 -130 -61 -149 -75 -146 -8 2 -28 34
-44 72 -32 79 -33 86 -14 86 7 0 24 -25 37 -56z m149 -24 c0 -64 -3 -80 -15
-80 -12 0 -15 16 -15 80 0 64 3 80 15 80 12 0 15 -16 15 -80z m150 65 c0 -11
-11 -15 -40 -15 -29 0 -40 -4 -40 -15 0 -10 11 -15 35 -15 24 0 35 -5 35 -15
0 -10 -11 -15 -35 -15 -50 0 -48 -28 2 -32 27 -2 39 -8 41 -20 3 -16 -5 -18
-57 -18 l-61 0 0 80 0 80 60 0 c47 0 60 -3 60 -15z m655 -9 c15 -22 15 -27 0
-55 -11 -23 -13 -36 -5 -50 13 -25 13 -31 -1 -31 -6 0 -20 11 -31 25 -24 31
-45 32 -44 3 1 -14 -6 -24 -16 -26 -16 -3 -18 5 -18 71 0 40 3 77 7 80 3 4 26
7 49 7 35 0 47 -5 59 -24z m145 9 c0 -11 -11 -15 -40 -15 -29 0 -40 -4 -40
-15 0 -10 11 -15 35 -15 24 0 35 -5 35 -15 0 -11 -11 -15 -36 -15 -28 0 -35
-3 -32 -17 2 -13 14 -19 41 -21 24 -2 37 -8 37 -18 0 -10 -14 -14 -55 -14
l-55 0 0 80 0 80 55 0 c42 0 55 -3 55 -15z m131 5 c23 -13 26 -62 4 -80 -14
-12 -14 -15 0 -36 19 -29 19 -34 1 -34 -7 0 -21 11 -30 25 -9 14 -23 25 -31
25 -9 0 -15 -10 -15 -25 0 -16 -6 -25 -15 -25 -12 0 -15 16 -15 80 l0 80 41 0
c22 0 49 -5 60 -10z m-776 -224 c11 15 14 16 15 4 0 -9 -5 -21 -12 -28 -9 -9
-9 -15 0 -24 7 -7 12 -19 12 -27 -1 -13 -4 -12 -16 4 -14 19 -16 19 -28 3 -21
-28 -30 -21 -11 8 15 23 15 27 1 43 -23 25 -20 37 4 16 20 -18 21 -18 35 1z
m-603 -16 c7 -11 16 -20 20 -20 4 0 10 9 13 20 12 36 25 21 24 -27 -1 -31 -3
-38 -6 -20 -4 23 -7 26 -19 16 -11 -9 -17 -9 -29 1 -13 11 -15 8 -15 -14 0
-14 -4 -26 -10 -26 -5 0 -10 20 -10 45 0 48 12 57 32 25z m158 6 c28 -35 -11
-93 -47 -70 -36 22 -23 84 17 84 10 0 23 -7 30 -14z m54 -11 c4 -14 11 -25 16
-25 5 0 12 11 16 25 5 21 24 37 24 20 0 -14 -33 -85 -40 -85 -7 0 -40 71 -40
85 0 17 19 1 24 -20z m96 -20 c0 -25 -4 -45 -10 -45 -5 0 -10 20 -10 45 0 25
5 45 10 45 6 0 10 -20 10 -45z m78 38 c-34 -5 -36 -18 -5 -28 l22 -8 -22 -4
c-28 -5 -30 -23 -3 -23 11 0 20 -4 20 -10 0 -5 -13 -10 -30 -10 -29 0 -30 2
-30 45 l0 45 38 -1 c30 -2 32 -3 10 -6z m127 0 c-31 -8 -42 -23 -17 -23 12 0
22 -4 22 -10 0 -5 -7 -10 -15 -10 -8 0 -15 -4 -15 -10 0 -5 9 -10 20 -10 11 0
20 -4 20 -10 0 -5 -13 -10 -30 -10 -29 0 -30 2 -30 45 0 44 0 45 33 44 21 -1
25 -3 12 -6z m200 -17 c0 -10 -9 -24 -20 -30 -11 -6 -25 -18 -32 -26 -10 -12
-12 -7 -13 33 l0 48 33 -3 c24 -2 32 -8 32 -22z m45 -11 c0 -28 4 -35 20 -35
11 0 20 -4 20 -10 0 -5 -13 -10 -30 -10 -29 0 -30 2 -30 45 0 25 5 45 10 45 6
0 10 -16 10 -35z m142 10 c9 -21 8 -28 -7 -45 -24 -27 -51 -25 -70 4 -23 34
-5 66 36 66 22 0 32 -6 41 -25z m92 8 c4 -9 2 -21 -3 -26 -7 -7 -7 -16 0 -29
6 -10 6 -18 0 -18 -5 0 -11 7 -15 15 -3 8 -13 15 -21 15 -9 0 -14 -4 -10 -9 3
-5 1 -12 -5 -16 -6 -4 -10 11 -10 39 0 44 1 46 29 46 18 0 31 -6 35 -17z m74
10 c-17 -3 -28 -11 -28 -20 0 -9 6 -13 15 -10 8 4 17 2 20 -3 4 -6 -3 -10 -14
-10 -12 0 -21 -4 -21 -10 0 -5 9 -10 19 -10 11 0 23 -5 26 -11 5 -7 -5 -9 -26
-7 -32 3 -34 5 -37 46 l-3 42 38 -1 c30 -2 32 -3 11 -6z m108 -40 c1 -43 -9
-56 -20 -28 -7 20 -26 19 -26 -1 0 -8 -4 -12 -10 -9 -5 3 -10 24 -10 46 0 39
1 40 33 37 30 -3 32 -5 33 -45z m-1266 -3 c0 -6 -28 -10 -65 -10 -37 0 -65 4
-65 10 0 6 28 10 65 10 37 0 65 -4 65 -10z m1455 0 c-3 -5 -33 -10 -66 -10
-33 0 -59 4 -59 10 0 6 29 10 66 10 41 0 63 -4 59 -10z"/>
<path d="M745 2260 c-22 -10 -51 -28 -64 -39 l-23 -21 31 -35 c47 -54 97 -95
115 -95 9 0 28 11 41 25 21 20 25 34 25 85 0 34 -5 70 -10 81 -14 25 -62 25
-115 -1z m88 -35 c1 -5 -14 -14 -33 -20 -19 -6 -45 -16 -58 -23 -22 -13 -42
-9 -42 8 0 4 19 17 43 29 42 21 86 24 90 6z m7 -62 c0 -10 -13 -25 -29 -35
-24 -13 -33 -14 -47 -4 -20 15 -12 33 20 46 35 14 56 11 56 -7z"/>
<path d="M923 2269 c-8 -8 -13 -41 -13 -84 0 -62 3 -74 23 -93 13 -12 32 -22
43 -22 27 0 139 114 131 133 -9 23 -92 68 -135 74 -23 3 -42 0 -49 -8z m105
-46 c38 -18 48 -31 35 -44 -6 -6 -20 -4 -39 6 -16 8 -41 20 -56 25 -16 5 -28
16 -28 25 0 18 32 13 88 -12z m-27 -62 c18 -15 21 -22 12 -31 -17 -18 -67 2
-71 28 -4 28 26 30 59 3z"/>
<path d="M590 2108 c-46 -76 -49 -198 -7 -274 32 -56 53 -54 116 10 53 53 53
54 55 120 l2 66 -57 55 c-32 30 -65 55 -73 55 -9 0 -25 -15 -36 -32z m54 -17
c3 -5 -1 -26 -10 -47 -16 -38 -15 -140 1 -191 10 -32 -8 -29 -26 4 -35 65 -1
293 35 234z m52 -42 c4 -7 8 -44 10 -82 4 -96 -19 -137 -44 -82 -15 33 -15
102 -1 144 11 32 23 39 35 20z"/>
<path d="M1078 2089 l-58 -51 0 -70 0 -71 58 -54 c34 -32 64 -52 76 -51 33 5
60 74 64 161 4 68 1 84 -23 132 -16 34 -33 55 -43 55 -9 0 -43 -23 -74 -51z
m95 -45 c22 -58 18 -150 -7 -189 -24 -37 -35 -30 -20 13 19 53 17 130 -5 179
-11 23 -17 44 -13 47 13 14 28 -3 45 -50z m-52 -26 c12 -45 4 -144 -12 -154
-5 -3 -18 5 -29 18 -26 31 -28 133 -3 160 24 27 31 23 44 -24z"/>
<path d="M829 2021 c-41 -41 -40 -90 2 -125 35 -30 58 -32 98 -11 80 41 43
165 -49 165 -12 0 -35 -13 -51 -29z m101 -30 c15 -30 12 -49 -11 -61 -48 -26
-102 17 -73 58 20 28 69 30 84 3z"/>
<path d="M721 1796 l-64 -64 27 -27 c30 -30 101 -64 133 -65 38 0 53 26 53 91
0 33 -5 69 -10 80 -9 15 -58 49 -72 49 -2 0 -32 -29 -67 -64z m109 -42 c0 -18
-14 -18 -51 2 -24 12 -28 18 -19 29 9 11 16 11 40 -2 17 -8 30 -21 30 -29z"/>
<path d="M947 1842 c-34 -21 -39 -39 -35 -121 4 -78 17 -90 75 -73 46 14 101
49 117 75 9 15 2 27 -51 77 -33 33 -65 60 -70 60 -4 0 -21 -8 -36 -18z m78
-62 c6 -10 -51 -40 -75 -40 -22 0 -9 29 18 38 36 14 50 14 57 2z"/>
<path d="M1345 1790 c-4 -7 -3 -16 3 -22 14 -14 45 -2 40 15 -6 16 -34 21 -43
7z"/>
<path d="M1400 1736 c0 -18 17 -29 30 -21 8 5 7 11 -1 21 -15 18 -29 18 -29 0z"/>
<path d="M1382 1588 c-14 -14 -17 -594 -3 -602 4 -3 174 -6 377 -6 318 -1 370
1 379 14 12 16 14 574 2 593 -10 16 -740 16 -755 1z m141 -43 c-1 -5 -17 -12
-35 -15 -29 -4 -33 -9 -33 -37 0 -35 -8 -48 -24 -38 -15 9 -14 78 1 93 15 15
94 12 91 -3z m565 3 c18 -18 16 -98 -3 -98 -11 0 -15 11 -15 40 0 39 -1 40
-35 40 -24 0 -35 5 -35 15 0 19 70 21 88 3z m-416 -68 c21 -6 47 -24 61 -41
l24 -30 35 35 c31 31 43 36 82 36 54 0 87 -19 116 -65 22 -36 27 -103 9 -138
-15 -29 -231 -247 -244 -247 -6 0 -61 51 -122 113 -126 127 -146 166 -123 241
13 44 59 92 93 99 12 2 24 5 27 6 3 0 22 -4 42 -9z m-222 -381 c0 -38 1 -39
35 -39 43 0 48 -25 8 -33 -43 -8 -70 15 -75 63 -4 40 7 64 24 54 4 -3 8 -23 8
-45z m650 -3 c0 -50 -15 -67 -62 -69 -23 -2 -33 3 -36 16 -3 14 4 17 32 17 35
0 36 1 36 40 0 29 4 40 15 40 11 0 15 -12 15 -44z"/>
<path d="M1599 1425 c-47 -26 -67 -125 -26 -133 14 -3 17 4 17 36 0 41 14 59
63 80 15 7 25 17 22 22 -9 14 -45 12 -76 -5z"/>
<path d="M749 756 c-10 -20 -9 -30 5 -51 20 -30 36 -31 67 -6 20 16 22 23 14
47 -8 23 -17 30 -43 32 -26 3 -34 -1 -43 -22z"/>
<path d="M1637 759 c-28 -39 11 -92 52 -70 25 14 32 36 21 66 -12 31 -53 34
-73 4z"/>
<path d="M1804 765 c-4 -9 -2 -21 4 -27 15 -15 54 1 50 20 -4 23 -46 28 -54 7z"/>
<path d="M2092 758 c3 -25 25 -33 47 -19 21 14 5 41 -24 41 -22 0 -26 -4 -23
-22z"/>
<path d="M890 555 c-17 -20 -5 -45 20 -45 11 0 23 7 26 15 6 15 -11 45 -26 45
-4 0 -13 -7 -20 -15z"/>
<path d="M1450 556 c0 -9 7 -16 16 -16 9 0 14 5 12 12 -6 18 -28 21 -28 4z"/>
<path d="M1620 555 c-17 -20 -5 -45 20 -45 11 0 23 7 26 15 6 15 -11 45 -26
45 -4 0 -13 -7 -20 -15z"/>
<path d="M1725 560 c-3 -6 1 -13 10 -16 19 -8 30 0 20 15 -8 14 -22 14 -30 1z"/>
<path d="M1910 556 c0 -9 7 -16 16 -16 9 0 14 5 12 12 -6 18 -28 21 -28 4z"/>
<path d="M2342 578 c-30 -100 -132 -206 -242 -251 l-55 -22 -706 0 -705 0 -76
38 c-87 42 -159 114 -203 199 l-27 53 6 -43 c15 -102 97 -206 202 -258 l59
-29 750 0 750 0 57 27 c108 50 194 165 205 274 3 30 4 54 2 54 -3 0 -10 -19
-17 -42z"/>
</g>
</svg>
